<svg width="400" height="160" viewBox="0 0 400 160" fill="none" xmlns="http://www.w3.org/2000/svg">
  <g transform="translate(40, 45)">
    <path d="M35 25C35 16.7157 28.2843 10 20 10C11.7157 10 5 16.7157 5 25C5 33.2843 11.7157 40 20 40C28.2843 40 35 33.2843 35 25Z" stroke="#1D4ED8" stroke-width="6" stroke-linecap="round"/>
    <path d="M55 55C55 46.7157 48.2843 40 40 40C31.7157 40 25 46.7157 25 55C25 63.2843 31.7157 70 40 70C48.2843 70 55 63.2843 55 55Z" stroke="#1D4ED8" stroke-width="6" stroke-linecap="round"/>
    <path d="M15 55C15 46.7157 21.7157 40 30 40C38.2843 40 45 46.7157 45 55C45 63.2843 38.2843 70 30 70C21.7157 70 15 63.2843 15 55Z" stroke="#1D4ED8" stroke-width="6" stroke-linecap="round"/>
    
    <circle cx="20" cy="8" r="5" fill="#1D4ED8"/>
    <circle cx="5" cy="40" r="5" fill="#1D4ED8"/>
    <circle cx="55" cy="40" r="5" fill="#1D4ED8"/>
  </g>

  <text x="120" y="95" fill="#0F172A" style="font-family: 'Segoe UI', Roboto, sans-serif; font-weight: 700; font-size: 42px; letter-spacing: -1px;">Alumni<tspan fill="#0F172A" style="font-weight: 400;">One</tspan></text>
</svg>
